<?xml version="1.0" encoding="UTF-8" standalone="no"?>
<svg
   width="198.65149"
   height="222.3951"
   viewBox="0 0 52.559873 58.842036"
   version="1.1"
   id="svg28"
   xmlns="http://www.w3.org/2000/svg"
   xmlns:svg="http://www.w3.org/2000/svg"
   xmlns:rdf="http://www.w3.org/1999/02/22-rdf-syntax-ns#"
   xmlns:cc="http://creativecommons.org/ns#"
   xmlns:dc="http://purl.org/dc/elements/1.1/">
  <defs
     id="defs22" />
  <metadata
     id="metadata25">
    <rdf:RDF>
      <cc:Work
         rdf:about="">
        <dc:format>image/svg+xml</dc:format>
        <dc:type
           rdf:resource="http://purl.org/dc/dcmitype/StillImage" />
      </cc:Work>
    </rdf:RDF>
  </metadata>
  <g
     id="layer5"
     transform="translate(-139.50655,-19.715321)">
    <path
       id="path1032-5"
       style="display:inline;fill:none;fill-opacity:0.793522;stroke:#ffffff;stroke-width:0.423033;stroke-linecap:butt;stroke-linejoin:miter;stroke-miterlimit:4;stroke-dasharray:none;stroke-opacity:1"
       d="m 139.50655,57.51163 z m 34.44177,-27.863588 -0.008,0.01252 c 2.67049,2.055476 5.80776,4.569914 7.93876,7.491349 2.1309,2.921325 3.25563,6.24827 1.90404,9.932755 -2.76208,4.712677 -7.04704,8.996046 -11.0738,12.593922 -0.99857,0.885746 -2.01019,1.743059 -3.09156,2.451387 v 1.21e-4 h -1.1e-4 c -8.34191,5.54818 -17.25743,10.241961 -25.98516,15.216305 l 0.007,0.01368 c 8.72744,-4.97419 17.64328,-9.668044 25.98603,-15.216777 1.08239,-0.708986 2.09442,-1.566867 3.09317,-2.452765 h 1.3e-4 c 4.02746,-3.598503 8.31379,-7.882852 11.07734,-12.598405 l 2.7e-4,-5.64e-4 1.6e-4,-5.64e-4 c 1.35393,-3.69035 0.22678,-7.024514 -1.90598,-9.948381 -2.13277,-2.923865 -5.27114,-5.438723 -7.94178,-7.494337 z m -0.47381,2.149463 -0.007,0.01333 c 1.12379,0.720836 3.39797,2.440061 5.33008,4.880953 1.93175,2.440477 3.52144,5.602004 3.27987,9.208954 -3.46961,5.694939 -7.48915,9.640828 -13.02221,14.289222 -4.62844,2.882674 -9.06573,5.886976 -14.07845,8.523497 l -1.3e-4,1.09e-4 -12.60637,7.188466 0.006,0.01368 12.60605,-7.188241 v -1.08e-4 c 5.01362,-2.637029 9.45135,-5.641685 14.07955,-8.524187 v -1.84e-4 -2.81e-4 c 5.53433,-4.649449 9.55576,-8.597288 13.02685,-14.295214 l 0.002,-0.0018 1.1e-4,-0.002 c 0.24251,-3.613215 -1.34976,-6.779322 -3.2833,-9.222066 -1.93357,-2.442742 -4.20851,-4.162477 -5.33364,-4.88417 z m 0,1.19e-4 -0.007,0.01297 c 2.69501,1.892809 5.06933,4.544887 6.55384,7.193103 1.46512,2.613626 2.06005,5.221362 1.2472,7.093032 -0.0343,0.06729 -0.0952,0.184923 -0.22308,0.401654 -0.28484,0.482936 -0.82565,1.329819 -1.72876,2.509751 -1.80621,2.359786 -5.06136,6.051745 -10.61525,10.828651 0,1.5e-5 -1e-4,-1.8e-5 -1e-4,0 0,1.21e-4 0,2.82e-4 0,2.82e-4 -2.75715,1.946982 -5.82705,3.783247 -8.82149,5.646455 l -18.31362,10.418319 0.006,0.01369 18.31405,-10.418436 1.2e-4,-1.09e-4 c 2.9945,-1.86325 6.06473,-3.699802 8.82267,-5.647385 v -1.78e-4 -1.77e-4 c 5.55491,-4.777728 8.81095,-8.470483 10.61793,-10.831287 0.90348,-1.1804 1.44466,-2.027846 1.72984,-2.511356 0.10564,-0.1791 0.14376,-0.254564 0.18455,-0.332266 l 0.009,0.0046 c 1e-5,-4.5e-5 1.1e-4,-5.9e-5 1.1e-4,-1.18e-4 0.0269,-0.06129 0.0433,-0.09594 0.0541,-0.118333 1.6e-4,-2.84e-4 0.002,-0.002 0.002,-0.0026 0.006,-0.01403 0.0105,-0.02133 0.0118,-0.02457 1.7e-4,-2.82e-4 5.3e-4,-0.0026 5.3e-4,-0.0026 0,-3.5e-5 -0.003,-0.0014 -0.007,-0.0031 0.76874,-1.873437 0.16917,-4.450875 -1.27795,-7.03238 -1.48583,-2.650557 -3.86151,-5.303867 -6.55847,-7.198039 z m 7.24371,1.882916 -0.0116,0.0094 c 3.49502,4.875997 4.97624,7.95323 4.76117,10.8043 -0.21505,2.850903 -2.12675,5.479543 -5.42297,9.457217 l -7.19459,6.970099 c -4.15863,3.580269 -8.77606,6.002083 -13.24401,8.803929 l -15.65152,8.523703 -0.3133,-0.900161 -1.26534,-1.44794 h -0.81668 l 0.20721,1.12006 1.10798,1.196327 1.07084,0.05021 0.002,0.0036 15.66684,-8.532086 v -1.09e-4 c 4.46743,-2.801547 9.08576,-5.22376 13.24605,-8.805563 v -1.16e-4 l 7.19504,-6.970598 v -2.81e-4 c 3.29685,-3.978379 5.21163,-6.609221 5.4272,-9.466861 0.21556,-2.857646 -1.26858,-5.938167 -4.76418,-10.814989 z m -39.14086,42.236081 h 0.7926 l 1.25908,1.440817 0.31114,0.894523 -1.05895,-0.04975 -1.10088,-1.188633 z m 34.48568,-46.469746 -0.009,0.01183 4.65433,4.232406 0.009,-0.01183 z m -10.258,8.933665 -0.004,0.01484 c 1.16664,0.379119 2.25364,0.645455 3.36092,0.940718 l 0.002,1.84e-4 0.002,-1.22e-4 c 1.66572,-0.112444 3.28202,-0.167694 4.92967,-0.419691 0.091,0.0082 0.16554,0.06288 0.21282,0.110973 0.0237,0.02407 0.0405,0.04655 0.049,0.06009 0,2.82e-4 0,2.82e-4 0,5.65e-4 -0.34316,0.214064 -0.89608,0.518066 -1.35468,0.855236 l -0.007,0.0054 0.1879,0.191409 0.0105,-0.0113 -0.17462,-0.177735 c 0.45538,-0.333703 1.00211,-0.635283 1.34422,-0.848577 0,2.81e-4 0.002,0.0014 0.002,0.002 0,2.82e-4 0.002,5.65e-4 0.002,0.0011 0,1.51e-4 0.002,1.78e-4 0.002,1.78e-4 0,-6e-6 0.002,-1.02e-4 0.002,-1.16e-4 4e-5,-8e-6 0.002,-2.82e-4 0.002,-2.82e-4 6e-5,-2.3e-5 0.002,-0.002 0.002,-0.002 3e-5,-2.2e-5 0.002,-0.0014 0.002,-0.0014 2e-5,-3.1e-5 0,-5.63e-4 0,-0.0014 0,-0.0018 0,-0.0028 0,-0.0038 0,-0.0036 -0.002,-0.0053 -0.002,-0.008 -0.002,-0.0028 -0.003,-0.0059 -0.005,-0.0097 -0.009,-0.01484 -0.0266,-0.03776 -0.051,-0.06261 -0.0489,-0.04971 -0.12612,-0.106725 -0.22199,-0.115352 v -1.17e-4 l -0.002,1.17e-4 c -1.64674,0.251972 -3.2627,0.307251 -4.92881,0.419694 -1.10708,-0.295188 -2.19343,-0.561228 -3.35909,-0.940029 z m 7.94016,-1.312835 c -1.5595,0.03215 -3.05958,0.316011 -4.5654,0.57318 l -0.96078,-0.318472 -0.004,0.01484 0.9641,0.319623 0.002,-1.78e-4 c 1.72107,-0.293908 3.43339,-0.62259 5.23456,-0.571 0.3232,0.281137 0.70065,0.400652 0.98903,0.769299 0.28838,0.368654 0.48933,0.988907 0.45751,2.27194 h -2.67495 v 0 c -1.29266,0.08812 -2.0384,0.232013 -3.97549,0.470242 -1.49336,-0.162925 -0.9518,-0.111397 -3.39612,-0.610412 l -0.003,0.01529 c 2.44467,0.499087 1.90349,0.447577 3.39816,0.610642 l 0.002,1.15e-4 v -1.15e-4 c 1.93806,-0.238333 2.6834,-0.382151 3.97561,-0.47024 v 1.17e-4 h 2.68932 l 1e-4,-0.0076 c 0.033,-1.290752 -0.16891,-1.916639 -0.46095,-2.289981 -0.29206,-0.37334 -0.67234,-0.492995 -0.99324,-0.773086 l -0.002,-0.0018 -0.002,-1.21e-4 c -0.22548,-0.0065 -0.4495,-0.0069 -0.67238,-0.0026 z m 2.31244,-7.622671 -2.11948,0.201975 -0.47401,2.153139 -5.24922,5.520654 -0.47218,-0.184281 -1.9472,1.247001 0.0105,1.60743 -15.91183,15.739473 -0.74264,-1.097305 -0.0119,0.0091 0.75234,1.111664 15.92866,-15.75613 -0.0105,-1.605471 1.93404,-1.238618 0.47445,0.185203 5.25872,-5.530767 0.47262,-2.146475 2.10888,-0.201056 z m 14.89836,-9.440212 -4.70536,1.170031 c -1.2e-4,1.6e-5 -1.6e-4,-1.7e-5 -2.6e-4,0 l -1.6e-4,1.16e-4 c -5.30448,0.854816 -8.86233,2.909672 -12.23032,5.797078 v 1.8e-4 l -26.33593,26.609373 0.007,0.0054 1.45516,1.060545 25.10589,-25.335831 v -3.4e-4 c 3.24726,-2.887046 5.93998,-4.581036 9.45716,-5.841081 l 2.5e-4,-1.16e-4 c 1.1e-4,-4e-5 1.6e-4,-5.9e-5 2.6e-4,-1.19e-4 l 8.04169,-1.905782 z m -0.007,0.01781 0.7815,1.531013 -8.02389,1.901647 -2.5e-4,1.18e-4 c -3.51931,1.260704 -6.21452,2.956133 -9.46308,5.844413 l -1.2e-4,1.8e-4 -25.09793,25.327672 -1.43799,-1.0479 26.3222,-26.595709 v -3.38e-4 c 3.36668,-2.886224 6.92139,-4.939193 12.22349,-5.793521 l 1.6e-4,-1.17e-4 z m 0.0105,-0.01263 -0.0128,0.0074 0.78807,1.54365 0.0942,1.502981 -5.9574,1.174396 c -2.95624,0.427421 -6.10809,1.662651 -9.81722,5.2085 l 0.009,0.01153 c 3.70743,-3.544248 6.85578,-4.777671 9.80977,-5.20471 h 1.6e-4 l 5.97046,-1.177037 -0.0952,-1.520101 z m -0.007,-0.0039 c -9.4611,1.84812 -11.46791,1.570218 -19.15716,8.130593 v 1.78e-4 l -6.20847,6.59072 -5.52229,5.641069 -4.45143,4.310982 -8.91397,8.717101 0.009,0.01153 8.91398,-8.7171 4.45144,-4.311102 5.52259,-5.641296 6.20773,-6.590041 v -5.1e-4 c 7.68764,-6.558915 9.68865,-6.278721 19.15014,-8.126917 z m -44.26151,33.386228 0.49808,1.084436 1.7102,1.213692 1.0102,0.06042 -0.75722,-1.118904 -0.002,-0.0011 -1.45172,-1.05802 z m 0.0256,0.02044 0.97726,0.175317 1.44785,1.055145 0.73778,1.090184 -0.97554,-0.05825 -1.70363,-1.209093 z m 2.43041,1.224896 -1.45033,-1.056978 -0.99293,-0.178144 0.4909,1.068855 1.70692,1.211368 0.99293,0.05939 z" />
  </g>
</svg>
